<?xml version="1.0" encoding="utf-8"?>
<!-- Generator: Adobe Illustrator 17.0.0, SVG Export Plug-In . SVG Version: 6.00 Build 0)  -->
<!DOCTYPE svg PUBLIC "-//W3C//DTD SVG 1.1//EN" "http://www.w3.org/Graphics/SVG/1.1/DTD/svg11.dtd">
<svg version="1.1" id="Layer_1" xmlns="http://www.w3.org/2000/svg" xmlns:xlink="http://www.w3.org/1999/xlink" x="0px" y="0px"
	 width="960px" height="148.493px" viewBox="0 0 960 148.493" enable-background="new 0 0 960 148.493" xml:space="preserve">
<path fill="#212221" d="M264.874,89.126c-4.012,29.163-24.96,50.817-59.173,50.817c-34.409,0-49.07-21.654-45.059-50.817
	l10.823-75.943h27.239l-10.649,74.901c-2.091,15.194,6.815,26.71,21.306,26.71c14.314,0,26.368-11.517,28.458-26.71l10.643-74.901
	h27.246L264.874,89.126z"/>
<path fill="#212221" d="M448.776,10.051c38.605,0,63.209,25.314,57.609,64.938c-5.577,39.64-37.344,64.954-75.935,64.954
	c-38.586,0-63.024-25.314-57.443-64.954C378.591,35.365,410.201,10.051,448.776,10.051z M434.114,114.794
	c23.217,0,40.681-16.763,43.99-39.805c3.145-23.05-9.584-39.813-32.815-39.813c-23.224,0-40.852,16.763-43.999,39.813
	C397.965,98.032,410.898,114.794,434.114,114.794z"/>
<path fill="#FF4906" d="M657.479,13.183h84.003L737.8,38.324h-56.728l-3.154,23.05h53.609l-3.669,25.141h-53.609l-3.494,25.132
	h66.426l-14.001,25.157h-83.158L657.479,13.183z"/>
<path fill="#FF4906" d="M804.965,13.183h22.521l36.325,123.621h-30.726l-6.982-26.198h-48.031l-13.947,26.198h-30.039
	L804.965,13.183z M810.376,49.147l-20.424,38.409h30.213L810.376,49.147z"/>
<path fill="#FF4906" d="M887.729,13.183h27.24l-13.978,98.464h50.462l-3.501,25.157h-77.688L887.729,13.183z"/>
<path fill="#FF4906" d="M574.916,13.183h-81.029c8.702,6.332,15.291,14.854,19.201,25.254h44.53l0.015-0.113h16.069
	c23.042,0,40.853,11.352,37.541,35.609c-4.009,28.121-24.439,37.714-49.754,37.714h-14.15l8.03-57.231h-27.134l-11.631,82.389
	h44.515c36.841,0,72.472-21.48,78.049-61.46C645.645,30.12,614.73,13.183,574.916,13.183z"/>
<path fill="#212221" d="M399.905,13.183H284.528l-3.487,24.099h35.261l-13.967,99.522h27.235l13.97-99.522h31.908
	C381.912,27.523,390.233,19.44,399.905,13.183z"/>
<g>
	<g>
		<path fill="#212221" d="M131.653,12.904l-83.339,81.95c14.665-5.071,29.183-7.214,42.64-7.471l35.326-35.337l-5.155,37.525
			c11.555,1.939,21.164,4.612,27.428,6.732c0.656-4.988,1.151-8.43,1.151-8.536l10.283-74.863
			C159.987,12.904,131.653,12.904,131.653,12.904z"/>
		<path fill="#212221" d="M84.285,96.289l-0.2,0.015l-0.015,0.03c-25.839,4.144-54.919,14.967-78.09,40.152h35.858
			c0,0,11.626-9.971,30.273-19.842c13.155-6.113,28.341-10.733,46.432-9.819l-0.034,1.933l-3.804,27.729h28.428
			c0.026-0.271,3.306-24.566,5.245-38.718c-0.856-0.158-1.626-0.189-2.445-0.317c0.827,0.008,1.627-0.038,2.46,0
			C148.393,97.451,119.362,90.704,84.285,96.289z"/>
	</g>
</g>
</svg>
